inDegrees=yes
name=ik_lifting_orientations
DataType=double
version=3
OpenSimVersion=4.5-2024-01-10-34fd6af
endheader
time	pelvis_tilt	pelvis_list	pelvis_rotation	pelvis_tx	pelvis_ty	pelvis_tz	hip_flexion_r	hip_adduction_r	hip_rotation_r	knee_angle_r	knee_angle_r_beta	ankle_angle_r	subtalar_angle_r	mtp_angle_r	hip_flexion_l	hip_adduction_l	hip_rotation_l	knee_angle_l	knee_angle_l_beta	ankle_angle_l	subtalar_angle_l	mtp_angle_l	lumbar_extension	lumbar_bending	lumbar_rotation	arm_flex_r	arm_add_r	arm_rot_r	elbow_flex_r	pro_sup_r	wrist_flex_r	wrist_dev_r	arm_flex_l	arm_add_l	arm_rot_l	elbow_flex_l	pro_sup_l	wrist_flex_l	wrist_dev_l
1.8	1.802252925926458	-4.642791235082149	-86.80976366646404	0	0.9399999998679526	0	43.81117641288294	-10.30613009851854	0	58.38091542234712	1.018939194448293	-5.11856649881789	0	0	43.81117641288294	-10.30613009851854	0	58.38091542234712	1.018939194448293	-5.11856649881789	0	0	-8.36673085344966	-0.5409557919472013	-3.645067684041734	61.65372373948162	3.54636415078446	51.63565124971201	0.03059295971549325	4.432669440367527	0	0	0	-10.59692155519853	0	85.61376117754682	4.432669440367527	0	0
1.81	1.827451459478419	-4.709503813585299	-86.79188409154199	0	0.9399999998679526	0	43.81161216928738	-10.3057375591844	0	58.38138092478526	1.018947318998515	-5.118368141368804	0	0	43.81161216928738	-10.3057375591844	0	58.38138092478526	1.018947318998515	-5.118368141368804	0	0	-8.737748550859882	-0.4973829977538702	-3.668216641007745	62.63421599253844	4.674157136570932	52.09260677528668	0.02669294505287049	4.431537107832177	0	0	0	-10.5977483092501	0	85.61488155141221	4.431537107832177	0	0
1.82	1.86352840364098	-4.716627138281867	-86.78674250438235	0	0.9399999998679526	0	43.81201663822751	-10.30537344581515	0	58.38181296294141	1.018954859486834	-5.118184209261076	0	0	43.81201663822751	-10.30537344581515	0	58.38181296294141	1.018954859486834	-5.118184209261076	0	0	-8.875954230538678	-0.5069373822570128	-3.55856093690126	63.46293317857544	5.803439264441182	52.30947532065777	0.02313488956913499	4.430486035049062	0	0	0	-10.59851573955027	0	85.61592152373623	4.430486035049062	0	0
1.83	1.869686300009149	-4.721751891703503	-86.90884623831946	0	0.9399999998679526	0	43.81238638631095	-10.30504089015874	0	58.38220796647757	1.018961753599097	-5.118016280269775	0	0	43.81238638631095	-10.30504089015874	0	58.38220796647757	1.018961753599097	-5.118016280269775	0	0	-9.18132814179436	-0.4819028658682556	-3.309755858449422	64.83821826389958	7.238657594835175	52.97051577575823	0.02336201320503072	4.429525072058162	0	0	0	-10.59921743390586	0	85.61687233796226	4.429525072058162	0	0
1.84	1.895701615123114	-4.664478893260885	-87.21923738198682	0	0.9399999998679526	0	43.81286225256697	-10.30461292824614	0	58.38271603890959	1.018970621135874	-5.117800224369787	0	0	43.81286225256697	-10.30461292824614	0	58.38271603890959	1.018970621135874	-5.117800224369787	0	0	-9.55512137855087	-0.4834619057335113	-2.758256933742456	66.25659995808262	8.264904904553413	53.57555922350074	0.02513166631947319	4.428288489251277	0	0	0	-10.60012024850578	0	85.61809586113499	4.428288489251277	0	0
1.85	1.901260346984505	-4.463454279644784	-87.53330049931962	0	0.9399999998679526	0	43.813182760632	-10.30432528417524	0	58.38305860488904	1.018976600040121	-5.117655094422703	0	0	43.813182760632	-10.30432528417524	0	58.38305860488904	1.018976600040121	-5.117655094422703	0	0	-9.658940096241887	-0.5158473546025714	-2.278687666011363	67.55558767340472	9.581493384218909	54.21902193154008	0.02663772862042482	4.427455219067096	0	0	0	-10.60072884716403	0	85.61892033120998	4.427455219067096	0	0
1.86	1.899099692661308	-4.350315046083018	-87.78445492231327	0	0.9399999998679526	0	43.8135317626862	-10.30401223358506	0	58.38343159725743	1.018983109985034	-5.117497187787336	0	0	43.8135317626862	-10.30401223358506	0	58.38343159725743	1.018983109985034	-5.117497187787336	0	0	-9.919763128173658	-0.5113958899423958	-1.788602753899951	68.94671729964199	10.71220996988013	54.7048144848777	0.02876692020457914	4.426547839027682	0	0	0	-10.60139157941494	0	85.61981812848504	4.426547839027682	0	0
1.87	1.898281891670603	-4.095633969100253	-88.10899893754511	0	0.9399999998679526	0	43.81383884318836	-10.30373697092129	0	58.38375980007868	1.018988838204879	-5.117358382238931	0	0	43.81383884318836	-10.30373697092129	0	58.38375980007868	1.018988838204879	-5.117358382238931	0	0	-10.04133928796739	-0.5496388163998034	-1.096511440622776	70.26279231291151	11.76266277950223	55.36033936522882	0.03332055885851544	4.425749391923159	0	0	0	-10.60197477485537	0	85.62060814327711	4.425749391923159	0	0
1.88	1.864738098100091	-3.838301845629648	-88.49792461657066	0	0.9399999998679526	0	43.81418612599397	-10.30342649347097	0	58.38413157754395	1.018995326945733	-5.117201923848159	0	0	43.81418612599397	-10.30342649347097	0	58.38413157754395	1.018995326945733	-5.117201923848159	0	0	-10.15333792914488	-0.572735833191682	-1.401074994735422	71.52478663079032	13.82390190015516	56.51511764669264	0.04124242998315421	4.424845796724806	0	0	0	-10.60263514934421	0	85.62150219587669	4.424845796724806	0	0
1.89	1.843206438702388	-3.575462618186172	-88.63776158689841	0	0.9399999998679526	0	43.8145742141897	-10.3030800026894	0	58.38454725616141	1.019002581906238	-5.117027394556289	0	0	43.8145742141897	-10.3030800026894	0	58.38454725616141	1.019002581906238	-5.117027394556289	0	0	-10.27272106268963	-0.5612220839534745	-2.019967479314229	72.46951049540942	15.67987780238237	57.56174152526761	0.0465287611505933	4.423835758290332	0	0	0	-10.60337347117061	0	85.62250156767722	4.423835758290332	0	0
1.9	1.801289731589413	-3.309560310474241	-88.69954420840729	0	0.9399999998679526	0	43.8149458456079	-10.30274975437752	0	58.38494657818807	1.019009551390379	-5.116861227287549	0	0	43.8149458456079	-10.30274975437752	0	58.38494657818807	1.019009551390379	-5.116861227287549	0	0	-10.38145237294803	-0.5292331290593932	-2.767834618724439	73.3618526137752	17.46979297222198	58.28757293302641	0.05520330837845842	4.422867305055894	0	0	0	-10.60408216741184	0	85.62345979378436	4.422867305055894	0	0
1.91	1.726216074773113	-3.054512716110982	-88.79848163750341	0	0.9399999998679526	0	43.81528369937971	-10.30244887589387	0	58.38530877428113	1.01901587290474	-5.116709802910449	0	0	43.81528369937971	-10.30244887589387	0	58.38530877428113	1.01901587290474	-5.116709802910449	0	0	-10.49631383998715	-0.4731978644543283	-3.721685575599335	74.69427005116121	19.99935761191261	59.21661515586851	0.1350814374339513	4.421987585993599	0	0	0	-10.60472546353294	0	85.62433022259022	4.421987585993599	0	0
1.92	1.669200687756341	-2.838803960084637	-88.75249836321422	0	0.9399999998679526	0	43.81902020799709	-10.30001694251347	0	58.39025316312531	1.01910216876957	-5.115565975970053	0	0	43.81902020799709	-10.30001694251347	0	58.39025316312531	1.01910216876957	-5.115565975970053	0	0	-10.84139860631388	-0.3668250866916746	-4.960231698842847	76.45964538321998	24.14907694204518	60.61479378241396	0.1346250719369776	4.411413358095482	0	0	0	-10.61300032848928	0	85.63479301095106	4.411413358095482	0	0
1.93	1.601646025562366	-2.57490454338578	-88.89431447468024	0	0.9399999998679526	0	43.81938082087223	-10.29969902805274	0	58.39064116687497	1.019108940712512	-5.1154064532733	0	0	43.81938082087223	-10.29969902805274	0	58.39064116687497	1.019108940712512	-5.1154064532733	0	0	-11.37554149709564	-0.2413509232330779	-5.515618535335364	77.75637232042151	25.93111831153504	61.23440173492766	0.2052717003044162	4.410472327074531	0	0	0	-10.6136896443439	0	85.63572410487137	4.410472327074531	0	0
1.94	1.572800951551768	-2.313124225134538	-88.96539482222836	0	0.9399999998679526	0	43.82166310501221	-10.29767669491083	0	58.39307895323754	1.019151488110999	-5.114391733546925	0	0	43.82166310501221	-10.29767669491083	0	58.39307895323754	1.019151488110999	-5.114391733546925	0	0	-11.74518098248799	-0.1799529078679814	-5.758673155264177	78.25821375180094	25.34127632283313	61.95327103649598	2.169801582462004	4.404531108666456	0	0	0	-10.61803182236963	0	85.64160258145216	4.404531108666456	0	0
1.95	1.539651294725222	-2.130480458254414	-89.16295399535947	0	0.9399999998679526	0	43.82899567801459	-10.29302553003606	0	58.40279167743317	1.019321007127551	-5.112226992832749	0	0	43.82899567801459	-10.29302553003606	0	58.40279167743317	1.019321007127551	-5.112226992832749	0	0	-12.13232530528462	-0.1625598876762132	-5.887289074770916	79.19892856142401	25.94460929754008	63.19169761140895	4.998814778363642	4.383713497578953	0	0	0	-10.63435468294657	0	85.66220081482123	4.383713497578953	0	0
1.96	1.532082408903622	-1.869651209220828	-89.48848410561703	0	0.9399999998679526	0	43.83862509966563	-10.28707646538612	0	58.41563399797948	1.01954514790468	-5.109481366066752	0	0	43.83862509966563	-10.28707646538612	0	58.41563399797948	1.01954514790468	-5.109481366066752	0	0	-12.49800383558703	-0.1536251212131863	-5.739040996223761	80.1509364017942	25.94261034087449	64.27302348664696	8.283058444981652	4.356245399715723	0	0	0	-10.65596477653653	0	85.68937948252459	4.356245399715723	0	0
1.97	1.52126866860287	-1.559736768896436	-89.74981325048307	0	0.9399999998679526	0	43.85123775099882	-10.27953861753263	0	58.4325827946344	1.01984096021056	-5.106040052513171	0	0	43.85123775099882	-10.27953861753263	0	58.4325827946344	1.01984096021056	-5.106040052513171	0	0	-12.75348574965966	-0.1971206042797951	-5.628727960704646	80.95125311629793	25.47346201004355	65.19790276200024	12.04323368368289	4.320059756173251	0	0	0	-10.68454892011155	0	85.72518388774994	4.320059756173251	0	0
1.98	1.50358930456517	-1.113300219629142	-90.13969911788733	0	0.9399999998679526	0	43.86222095775145	-10.27304577915946	0	58.44733436893435	1.020098423751947	-5.103086164258336	0	0	43.86222095775145	-10.27304577915946	0	58.44733436893435	1.020098423751947	-5.103086164258336	0	0	-12.79539158172858	-0.23352259346761	-5.437275523125133	81.89548188986316	25.40640143454779	65.7882474299649	15.38700449931866	4.288489138282671	0	0	0	-10.70952038860917	0	85.75642190317137	4.288489138282671	0	0
1.99	1.483094962084592	-0.663587487572784	-90.52763281664036	0	0.9399999998679526	0	43.90116495258676	-10.25241188577002	0	58.50076993453889	1.021031050309411	-5.094058452269128	0	0	43.90116495258676	-10.25241188577002	0	58.50076993453889	1.021031050309411	-5.094058452269128	0	0	-12.8999022271983	-0.2592675632579809	-5.05059897304943	82.45261862318375	22.83672177460169	66.45366980561964	21.08970158143651	4.174628285416483	0	0	0	-10.80062151727566	0	85.86908361964501	4.174628285416483	0	0
2	1.491101308718191	-0.1629615696880107	-90.84712062165441	0	0.9399999998679526	0	43.91352718743052	-10.24557356878116	0	58.51743746294447	1.021321953558258	-5.09101003035387	0	0	43.91352718743052	-10.24557356878116	0	58.51743746294447	1.021321953558258	-5.09101003035387	0	0	-12.96354516803856	-0.2809526273649548	-4.676130532804	83.51359262461624	22.20936037236408	66.7101198158114	24.74142530492787	4.138669041329487	0	0	0	-10.82930125094931	0	85.90466411886949	4.138669041329487	0	0
2.01	1.472614946358139	0.226129776207604	-91.1715652221292	0	0.9399999998679526	0	43.92162806653078	-10.24105546343872	0	58.52826911493197	1.02151100154887	-5.088991354800174	0	0	43.92162806653078	-10.24105546343872	0	58.52826911493197	1.02151100154887	-5.088991354800174	0	0	-12.944670546683	-0.2919153973817654	-4.292013537255984	84.56842030265997	22.11026672366117	66.97572793192448	27.85724100263451	4.115146293227244	0	0	0	-10.84803720959049	0	85.92793910219713	4.115146293227244	0	0
2.02	1.446738479030831	0.6832459963292902	-91.37142696373483	0	0.9399999998679526	0	43.92942825196356	-10.2367321631641	0	58.53867691351823	1.021692651902085	-5.087064581881513	0	0	43.92942825196356	-10.2367321631641	0	58.53867691351823	1.021692651902085	-5.087064581881513	0	0	-12.73989227318454	-0.2821240388197885	-4.21471656253078	85.54199476675068	22.18861846631269	67.39231436290754	30.99319200774578	4.092479021595357	0	0	0	-10.86610017384744	0	85.9503676232917	4.092479021595357	0	0
2.03	1.415363278117223	1.054211447874751	-91.44467729412095	0	0.9399999998679526	0	43.93494940344234	-10.23379186700705	0	58.54616738371552	1.02182338526955	-5.085768318964679	0	0	43.93494940344234	-10.23379186700705	0	58.54616738371552	1.02182338526955	-5.085768318964679	0	0	-12.87193009770985	-0.2331765180007778	-4.218962180273834	86.87394087445294	22.75894189013536	67.71385102115335	33.62094142382117	4.076300842000844	0	0	0	-10.87907171182756	0	85.96637542904533	4.076300842000844	0	0
